<svg xmlns="http://www.w3.org/2000/svg" viewBox="0 0 562.29 562.29"><defs><style>.cls-1{fill:#fcee21;}.cls-2{fill:#fbb03b;}.cls-3{fill:red;}.cls-4{fill:#93278f;}.cls-5{fill:#0071bc;}.cls-6{fill:#29abe2;}.cls-7{fill:#009245;}.cls-8{fill:#8cc63f;}.cls-9{fill:#fdf259;}.cls-10{fill:#fcc46c;}.cls-11{fill:#ff4040;}.cls-12{fill:#ae5dab;}.cls-13{fill:#4095cd;}.cls-14{fill:#5fc0e9;}.cls-15{fill:#40ad74;}.cls-16{fill:#a9d46f;}.cls-17{fill:#fef790;}.cls-18{fill:#fdd89d;}.cls-19{fill:#ff8080;}.cls-20{fill:#c993c7;}.cls-21{fill:#80b8de;}.cls-22{fill:#94d5f1;}.cls-23{fill:#80c9a2;}.cls-24{fill:#c6e39f;}.cls-25{fill:#fefbc7;}.cls-26{fill:#feebce;}.cls-27{fill:#ffbfbf;}.cls-28{fill:#e4c9e3;}.cls-29{fill:#bfdbee;}.cls-30{fill:#c9eaf8;}.cls-31{fill:#bfe4d0;}.cls-32{fill:#e2f1cf;}.cls-33,.cls-48,.cls-49{font-size:9px;font-family:DMSans-Regular, DM Sans;}.cls-33{fill:#333;}.cls-34{letter-spacing:-0.04em;}.cls-35{letter-spacing:-0.03em;}.cls-36{letter-spacing:-0.02em;}.cls-37{letter-spacing:0em;}.cls-38{letter-spacing:-0.01em;}.cls-39{letter-spacing:-0.01em;}.cls-40{letter-spacing:-0.02em;}.cls-41{letter-spacing:-0.02em;}.cls-42{letter-spacing:-0.02em;}.cls-43{letter-spacing:-0.02em;}.cls-44{letter-spacing:-0.02em;}.cls-45{letter-spacing:0em;}.cls-46{letter-spacing:-0.02em;}.cls-47{letter-spacing:-0.03em;}.cls-48,.cls-49{fill:#fff;}.cls-49{letter-spacing:-0.01em;}</style></defs><g id="Layer_2" data-name="Layer 2"><g id="Layer_1-2" data-name="Layer 1"><path class="cls-1" d="M322,140.57C322,62.94,281.15,0,281.15,0s-40.86,62.94-40.86,140.57,40.86,140.58,40.86,140.58S322,218.21,322,140.57"/><path class="cls-2" d="M210.63,152.86C155.74,98,82.35,82.35,82.35,82.35S98,155.74,152.86,210.63s128.29,70.52,128.29,70.52-15.62-73.39-70.52-128.29"/><path class="cls-3" d="M140.57,240.29C62.94,240.29,0,281.15,0,281.15S62.94,322,140.57,322s140.58-40.85,140.58-40.85-62.94-40.86-140.58-40.86"/><path class="cls-4" d="M152.86,351.66C98,406.56,82.35,480,82.35,480s73.39-15.62,128.28-70.51,70.52-128.29,70.52-128.29-73.39,15.61-128.29,70.51"/><path class="cls-5" d="M240.29,421.72c0,77.64,40.86,140.57,40.86,140.57S322,499.36,322,421.72s-40.85-140.57-40.85-140.57-40.86,62.93-40.86,140.57"/><path class="cls-6" d="M351.66,409.44C406.56,464.33,480,480,480,480s-15.62-73.39-70.51-128.29-128.29-70.51-128.29-70.51,15.61,73.39,70.51,128.29"/><path class="cls-7" d="M421.72,322c77.64,0,140.57-40.85,140.57-40.85s-62.93-40.86-140.57-40.86-140.57,40.86-140.57,40.86S344.08,322,421.72,322"/><path class="cls-8" d="M409.44,210.63C464.33,155.74,480,82.35,480,82.35S406.56,98,351.66,152.86s-70.51,128.29-70.51,128.29,73.39-15.62,128.29-70.52"/><path class="cls-9" d="M281,144.94a135.89,135.89,0,0,0-40.46,6.14,254.19,254.19,0,0,0,7.45,49.7q3.57-1.47,7.29-2.63a87,87,0,0,1,59,2.73,256,256,0,0,0,7.46-49.72l-.33-.11A136,136,0,0,0,281,144.94h0"/><path class="cls-10" d="M217.9,160.47A136.22,136.22,0,0,0,160.55,218,255.23,255.23,0,0,0,201,247.83l.3-.71a87,87,0,0,1,46.49-46.25,255.74,255.74,0,0,0-29.87-40.4"/><path class="cls-11" d="M151.24,240.55a136.54,136.54,0,0,0,.21,81.19,255.58,255.58,0,0,0,49.71-7.53c-1-2.5-2-5.06-2.79-7.67A87.15,87.15,0,0,1,200.9,248a254.5,254.5,0,0,0-49.66-7.47"/><path class="cls-12" d="M201.21,314.32a256,256,0,0,0-40.42,29.78,136.27,136.27,0,0,0,57.54,57.25,255.77,255.77,0,0,0,29.77-40.49l-.75-.31a86.83,86.83,0,0,1-46.14-46.23"/><path class="cls-13" d="M314.13,360.79c-2.4,1-4.86,1.88-7.36,2.66a87,87,0,0,1-58.63-2.57,256.42,256.42,0,0,0-7.57,49.65l.06,0A136,136,0,0,0,281,416.66h0a135.94,135.94,0,0,0,40.67-6.21,256.5,256.5,0,0,0-7.59-49.66"/><path class="cls-14" d="M360.89,314.21l-.12.27a86.87,86.87,0,0,1-31.38,38.09,85.07,85.07,0,0,1-15.25,8.21,255.53,255.53,0,0,0,29.75,40.48,133.22,133.22,0,0,0,14.69-8.91,136.88,136.88,0,0,0,42.66-48.49,255.56,255.56,0,0,0-40.35-29.65"/><path class="cls-15" d="M416.67,280.8h-49.1a86.42,86.42,0,0,1-6.66,33.36,256,256,0,0,0,49.52,7.56,136,136,0,0,0,6.24-40.87h0v-.05m-6.06-40.23a255.44,255.44,0,0,0-49.44,7.5q1.4,3.42,2.51,7a86.81,86.81,0,0,1,3.89,25.74h49.1a135.8,135.8,0,0,0-6.06-40.23"/><path class="cls-16" d="M344.29,160.59A255.07,255.07,0,0,0,314.47,201l.23.1A86.84,86.84,0,0,1,361.12,248a255,255,0,0,0,40.32-29.71,135.12,135.12,0,0,0-8-13.42,137,137,0,0,0-49.17-44.23"/><path class="cls-17" d="M280.59,67.3a215,215,0,0,0-29.63,2c-6.09,20.89-10.67,45.23-10.67,71.22q0,5.18.24,10.25a137,137,0,0,1,81.22.32q.25-5.23.25-10.57c0-25.93-4.56-50.21-10.63-71.07a214.82,214.82,0,0,0-30.71-2.2h-.07"/><path class="cls-18" d="M152.56,110a214.45,214.45,0,0,0-42.63,42.58c10.47,19.13,24.48,39.66,42.93,58.1q3.6,3.6,7.3,7A136.85,136.85,0,0,1,204.61,168a135.34,135.34,0,0,1,13.07-7.8q-3.41-3.73-7.05-7.37c-18.43-18.43-38.94-32.44-58.07-42.91"/><path class="cls-19" d="M140.57,240.29c-26.07,0-50.48,4.61-71.41,10.73a215.33,215.33,0,0,0,.08,60.28c20.92,6.11,45.29,10.7,71.33,10.7q5.19,0,10.28-.24c0-.14-.09-.29-.13-.44a137.16,137.16,0,0,1-.05-80.8q-5-.22-10.1-.23"/><path class="cls-20" d="M160.37,344.49q-3.81,3.47-7.51,7.17c-18.34,18.33-32.29,38.73-42.74,57.77A214.62,214.62,0,0,0,153,452.09c19-10.44,39.33-24.37,57.61-42.65,2.56-2.56,5-5.15,7.41-7.77a136.61,136.61,0,0,1-57.67-57.18"/><path class="cls-21" d="M321.72,410.58l-.62.19a137.08,137.08,0,0,1-80.55.12q-.26,5.37-.26,10.83c0,25.74,4.49,49.86,10.5,70.61a214.52,214.52,0,0,0,29.83,2.07h.06a215.71,215.71,0,0,0,30.87-2.22c6-20.72,10.45-44.79,10.45-70.46,0-3.75-.09-7.47-.28-11.14"/><path class="cls-22" d="M401.34,344a136,136,0,0,1-42.76,48.4c-.63.45-1.27.89-1.91,1.32a134.21,134.21,0,0,1-12.75,7.63q3.74,4.13,7.74,8.14a255.47,255.47,0,0,0,57,42.33,214.31,214.31,0,0,0,43.05-43.13c-10.4-18.81-24.22-38.9-42.3-57-2.66-2.66-5.37-5.23-8.1-7.71"/><path class="cls-23" d="M494.19,280.85H416.88a135.73,135.73,0,0,1-6.11,40.34c-.06.18-.11.36-.17.54q5.5.27,11.12.27c25.6,0,49.59-4.44,70.26-10.39a214.18,214.18,0,0,0,2.21-30.76m-72.47-40.56c-3.67,0-7.31.09-10.9.27a136.11,136.11,0,0,1,6.06,40.24h0v.05h77.31a214.5,214.5,0,0,0-2.12-30.14c-20.69-6-44.72-10.42-70.35-10.42"/><path class="cls-24" d="M409.14,110.28c-19,10.43-39.24,24.34-57.48,42.58q-3.8,3.79-7.35,7.7a136.22,136.22,0,0,1,57.27,57.56c2.65-2.41,5.28-4.91,7.86-7.49,18.19-18.19,32.07-38.41,42.49-57.32a214.61,214.61,0,0,0-42.79-43"/><path class="cls-25" d="M281.15,0S263.09,27.82,251,69.28a217.54,217.54,0,0,1,60.37.15C299.25,27.89,281.15,0,281.15,0"/><path class="cls-26" d="M82.35,82.35s6.88,32.33,27.56,70.13a215,215,0,0,1,42.61-42.55C114.7,89.23,82.35,82.35,82.35,82.35"/><path class="cls-27" d="M69.09,251C27.74,263.14,0,281.15,0,281.15s27.77,18,69.17,30.13A217.07,217.07,0,0,1,69.09,251"/><path class="cls-28" d="M110.08,409.5C89.26,447.44,82.35,480,82.35,480s32.59-6.94,70.59-27.81a215.38,215.38,0,0,1-42.86-42.64"/><path class="cls-29" d="M311.52,492.3a216.85,216.85,0,0,1-60.7.15c12.1,41.77,30.33,69.84,30.33,69.84s18.26-28.13,30.37-70"/><path class="cls-30" d="M451.81,408.76a215.64,215.64,0,0,1-43,43.07C447,472.94,480,480,480,480s-7-32.94-28.14-71.19"/><path class="cls-31" d="M561.87,280.88H494.29a215.17,215.17,0,0,1-2.18,30.69c42-12.1,70.18-30.42,70.18-30.42l-.42-.27m-69.68-30.13a216.11,216.11,0,0,1,2.1,30.13h67.58c-3.67-2.31-30.76-18.89-69.68-30.13"/><path class="cls-32" d="M480,82.35s-32.68,7-70.74,27.89a215.57,215.57,0,0,1,42.77,43c21-38.11,28-70.87,28-70.87"/><text class="cls-33" transform="translate(107.12 260.68) rotate(90)">ann<tspan class="cls-34" x="15.16" y="0">o</tspan><tspan class="cls-35" x="20.13" y="0">y</tspan><tspan x="24.86" y="0">ance</tspan></text><text class="cls-33" transform="translate(169.26 268.84) rotate(90)">an<tspan class="cls-36" x="10.02" y="0">g</tspan><tspan x="14.8" y="0">er</tspan></text><text class="cls-33" transform="translate(212.35 268.2) rotate(90)">ra<tspan class="cls-36" x="8.14" y="0">g</tspan><tspan class="cls-37" x="12.92" y="0">e</tspan></text><text class="cls-33" transform="matrix(0.71, -0.71, 0.71, 0.71, 224.8, 246.63)">vigilant</text><text class="cls-33" transform="matrix(0.66, -0.75, 0.75, 0.66, 185.27, 224.71)">anticip<tspan class="cls-38" x="28.58" y="0">a</tspan><tspan x="33.33" y="0">tion</tspan></text><text class="cls-33" transform="matrix(0.71, -0.71, 0.71, 0.71, 149.52, 172.91)">in<tspan class="cls-39" x="7.3" y="0">t</tspan><tspan x="10.66" y="0">e</tspan><tspan class="cls-40" x="15.78" y="0">r</tspan><tspan x="18.87" y="0">e</tspan><tspan class="cls-41" x="23.99" y="0">s</tspan><tspan x="28.3" y="0">t</tspan></text><text class="cls-33" transform="translate(265.25 219.04)">ec<tspan class="cls-42" x="10.25" y="0">s</tspan><tspan x="14.55" y="0">ta</tspan><tspan class="cls-43" x="22.9" y="0">s</tspan><tspan x="27.22" y="0">y</tspan></text><text class="cls-33" transform="translate(272.99 173.21)">j<tspan class="cls-34" x="2.18" y="0">o</tspan><tspan x="7.15" y="0">y</tspan></text><text class="cls-33" transform="translate(265.61 110.28)">se<tspan class="cls-40" x="9.62" y="0">r</tspan><tspan x="12.72" y="0">enity</tspan></text><text class="cls-33" transform="translate(314.44 225.31) rotate(45)">admi<tspan class="cls-44" x="20.73" y="0">r</tspan><tspan class="cls-37" x="23.82" y="0">e</tspan></text><text class="cls-33" transform="translate(346.4 196.19) rotate(45)">tru<tspan class="cls-42" x="11.9" y="0">s</tspan><tspan x="16.2" y="0">t</tspan></text><text class="cls-33" transform="translate(381.62 145.31) rotate(45)">acce<tspan class="cls-36" x="20.25" y="0">p</tspan><tspan x="25.72" y="0">t</tspan><tspan class="cls-39" x="29.2" y="0">a</tspan><tspan class="cls-45" x="33.95" y="0">tion</tspan></text><text class="cls-33" transform="translate(452.5 311.28) rotate(-90)">app<tspan class="cls-40" x="16.17" y="0">r</tspan><tspan x="19.27" y="0">ehension</tspan></text><text class="cls-33" transform="translate(393.48 295.05) rotate(-90)"><tspan class="cls-46">f</tspan><tspan x="2.82" y="0">ear</tspan></text><text class="cls-33" transform="translate(349.4 297.69) rotate(-90)"><tspan class="cls-39">t</tspan><tspan x="3.36" y="0">er</tspan><tspan class="cls-44" x="11.74" y="0">r</tspan><tspan x="14.84" y="0">or</tspan></text><text class="cls-33" transform="translate(386.9 419.43) rotate(-44)">di<tspan class="cls-41" x="7.8" y="0">s</tspan><tspan x="12.1" y="0">tra</tspan><tspan class="cls-39" x="23.72" y="0">c</tspan><tspan x="28.73" y="0">tion</tspan></text><text class="cls-33" transform="matrix(0.74, -0.67, 0.67, 0.74, 346.02, 374.7)">surprise</text><text class="cls-33" transform="translate(316.43 342.99) rotate(-40.17)">amaze</text><text class="cls-33" transform="translate(254.36 452.49) rotate(2.02)">pensi<tspan class="cls-47" x="22.57" y="0">v</tspan><tspan x="27.04" y="0">eness</tspan></text><text class="cls-33" transform="translate(260.69 393.79) rotate(2.02)">sadness</text><text class="cls-33" transform="translate(267.61 349.64) rotate(2.02)">g<tspan class="cls-44" x="4.97" y="0">r</tspan><tspan class="cls-37" x="8.06" y="0">eif</tspan></text><text class="cls-33" transform="matrix(0.68, 0.73, -0.73, 0.68, 142.17, 391.79)">bo<tspan class="cls-40" x="10.98" y="0">r</tspan><tspan x="14.08" y="0">edom</tspan></text><text class="cls-33" transform="matrix(0.68, 0.73, -0.73, 0.68, 192.93, 350.47)">disgu<tspan class="cls-42" x="22.42" y="0">s</tspan><tspan x="26.72" y="0">t</tspan></text><text class="cls-33" transform="matrix(0.68, 0.73, -0.73, 0.68, 220.38, 316.49)">lo<tspan class="cls-38" x="7.33" y="0">a</tspan><tspan x="12.07" y="0">the</tspan></text><text class="cls-48" transform="translate(158.03 496.16)"><tspan class="cls-40">r</tspan><tspan x="3.1" y="0">emorse</tspan></text><text class="cls-48" transform="translate(356.4 61.91)">l<tspan class="cls-47" x="2" y="0">ov</tspan><tspan class="cls-37" x="11.56" y="0">e</tspan></text><text class="cls-48" transform="translate(160.79 62.04)">o<tspan class="cls-46" x="5.33" y="0">p</tspan><tspan x="10.8" y="0">timism</tspan></text><text class="cls-48" transform="translate(349.53 496.16)">dissap<tspan class="cls-40" x="27.32" y="0">r</tspan><tspan class="cls-47" x="30.42" y="0">ov</tspan><tspan x="39.99" y="0">al</tspan></text><text class="cls-49" transform="translate(468.73 365.65)">a<tspan class="cls-44" x="4.78" y="0">w</tspan><tspan class="cls-37" x="11.39" y="0">e</tspan></text><text class="cls-48" transform="translate(474.48 196.19)">submission</text><text class="cls-48" transform="translate(23.45 190.38)">agg<tspan class="cls-40" x="14.8" y="0">r</tspan><tspan x="17.9" y="0">essi</tspan><tspan class="cls-47" x="34.17" y="0">v</tspan><tspan x="38.64" y="0">eness</tspan></text><text class="cls-48" transform="translate(23.87 362.84)">con<tspan class="cls-39" x="15.61" y="0">t</tspan><tspan class="cls-37" x="18.96" y="0">em</tspan><tspan class="cls-46" x="32.14" y="0">p</tspan><tspan class="cls-45" x="37.61" y="0">t</tspan></text></g></g></svg>