<svg xmlns="http://www.w3.org/2000/svg" viewBox="0,0,932,932" width="932" height="932" style="width: 100%; height: auto; font: 15px 'DM Sans',sans-serif;" id="feeling-wheel"><g transform="translate(466,466)"><g fill-opacity="0.6"><path fill="#ff4040" d="M0.5824993932293686,-231.99926873690117A232,232,0,0,1,200.62601068895464,-116.50409364067625L100.5994486895233,-58.753731144191754A116.5,116.5,0,0,0,0.582499393229355,-116.49854374393222Z"></path><path fill="#fbb03b" d="M201.208510082184,-115.49517509622495A232,232,0,0,1,201.20851008218403,115.49517509622491L101.18194808275267,57.74481259974044A116.5,116.5,0,0,0,101.18194808275265,-57.74481259974046Z"></path><path fill="#fcee21" d="M200.62601068895466,116.50409364067619A232,232,0,0,1,0.5824993932293686,231.99926873690117L0.582499393229355,116.49854374393222A116.5,116.5,0,0,0,100.59944868952331,58.75373114419173Z"></path><path fill="#8cc63f" d="M-0.5824993932293403,231.99926873690117A232,232,0,0,1,-200.6260106889546,116.50409364067629L-100.59944868952329,58.75373114419178A116.5,116.5,0,0,0,-0.5824993932293407,116.49854374393222Z"></path><path fill="#29abe2" d="M-201.20851008218395,115.49517509622503A232,232,0,0,1,-201.2085100821841,-115.4951750962248L-101.1819480827527,-57.74481259974039A116.5,116.5,0,0,0,-101.18194808275263,57.74481259974051Z"></path><path fill="#ae5dab" d="M-200.62601068895472,-116.50409364067609A232,232,0,0,1,-0.5824993932296031,-231.99926873690117L-0.5824993932295244,-116.49854374393222A116.5,116.5,0,0,0,-100.59944868952336,-58.75373114419167Z"></path><path fill="#ff4040" d="M0.5824993932294158,-348.4995131911333A348.5,348.5,0,0,1,59.94265546487546,-343.3061724697347L39.886249040304115,-229.56063934719916A233,233,0,0,0,0.5824993932293582,-232.99927187537924Z"></path><path fill="#ff4040" d="M61.08995530202989,-343.10387255348195A348.5,348.5,0,0,1,118.64648306912729,-327.6816474191487L79.14307398016379,-219.14692295574292A233,233,0,0,0,41.03354887745844,-229.35833943094642Z"></path><path fill="#ff4040" d="M119.74122383198716,-327.28319436722984A348.5,348.5,0,0,1,173.74529732334094,-302.1006813266462L115.99517666546396,-202.0745382039702A233,233,0,0,0,80.23781474302356,-218.7484699038241Z"></path><path fill="#ff4040" d="M174.75421586779228,-301.5181819334168A348.5,348.5,0,0,1,223.56494863774762,-267.3405389023544L149.32282460417562,-178.86222086351998A233,233,0,0,0,117.00409520991523,-201.49203881074084Z"></path><path fill="#ff4040" d="M224.45738948435468,-266.5916921171189A348.5,348.5,0,0,1,266.5916921171189,-224.45738948435468L178.1133740782845,-150.21526545078262A233,233,0,0,0,150.21526545078265,-178.1133740782845Z"></path><path fill="#ff4040" d="M267.3405389023544,-223.56494863774762A348.5,348.5,0,0,1,301.5181819334168,-174.75421586779228L201.49203881074084,-117.00409520991526A233,233,0,0,0,178.86222086351998,-149.3228246041756Z"></path><path fill="#fbb03b" d="M302.10068132664617,-173.74529732334102A348.5,348.5,0,0,1,327.28319436722984,-119.74122383198709L218.7484699038241,-80.23781474302356A233,233,0,0,0,202.07453820397018,-115.995176665464Z"></path><path fill="#fbb03b" d="M327.6816474191487,-118.64648306912731A348.5,348.5,0,0,1,343.103872553482,-61.089955302029836L229.35833943094642,-41.03354887745844A233,233,0,0,0,219.14692295574292,-79.14307398016378Z"></path><path fill="#fbb03b" d="M343.3061724697347,-59.94265546487548A348.5,348.5,0,0,1,348.4995131911333,-0.5824993932293563L232.99927187537924,-0.5824993932293563A233,233,0,0,0,229.56063934719916,-39.88624904030409Z"></path><path fill="#fbb03b" d="M348.4995131911333,0.5824993932293563A348.5,348.5,0,0,1,343.3061724697347,59.94265546487548L229.56063934719916,39.88624904030409A233,233,0,0,0,232.99927187537924,0.5824993932293563Z"></path><path fill="#fbb03b" d="M343.103872553482,61.089955302029836A348.5,348.5,0,0,1,327.6816474191487,118.64648306912731L219.14692295574292,79.14307398016378A233,233,0,0,0,229.35833943094642,41.03354887745844Z"></path><path fill="#fbb03b" d="M327.28319436722984,119.74122383198709A348.5,348.5,0,0,1,302.1006813266462,173.74529732334094L202.0745382039702,115.99517666546394A233,233,0,0,0,218.7484699038241,80.23781474302356Z"></path><path fill="#fcee21" d="M301.5181819334169,174.75421586779225A348.5,348.5,0,0,1,267.3405389023544,223.56494863774765L178.86222086351998,149.32282460417562A233,233,0,0,0,201.49203881074087,117.0040952099152Z"></path><path fill="#fcee21" d="M266.59169211711884,224.45738948435468A348.5,348.5,0,0,1,224.4573894843547,266.59169211711884L150.21526545078265,178.11337407828447A233,233,0,0,0,178.11337407828447,150.21526545078265Z"></path><path fill="#fcee21" d="M223.56494863774765,267.34053890235435A348.5,348.5,0,0,1,174.7542158677924,301.51818193341677L117.0040952099153,201.49203881074078A233,233,0,0,0,149.32282460417562,178.86222086351998Z"></path><path fill="#fcee21" d="M173.74529732334108,302.10068132664617A348.5,348.5,0,0,1,119.7412238319873,327.2831943672298L80.23781474302366,218.74846990382403A233,233,0,0,0,115.99517666546404,202.07453820397012Z"></path><path fill="#fcee21" d="M118.64648306912744,327.6816474191487A348.5,348.5,0,0,1,61.08995530203013,343.1038725534819L41.03354887745859,229.3583394309464A233,233,0,0,0,79.1430739801639,219.14692295574287Z"></path><path fill="#fcee21" d="M59.94265546487569,343.30617246973463A348.5,348.5,0,0,1,0.5824993932297253,348.4995131911333L0.5824993932295651,232.99927187537924A233,233,0,0,0,39.88624904030427,229.56063934719913Z"></path><path fill="#8cc63f" d="M-0.5824993932293732,348.4995131911333A348.5,348.5,0,0,1,-59.942655464875344,343.30617246973475L-39.88624904030404,229.56063934719916A233,233,0,0,0,-0.5824993932293295,232.99927187537924Z"></path><path fill="#8cc63f" d="M-61.08995530202978,343.103872553482A348.5,348.5,0,0,1,-118.64648306912711,327.6816474191488L-79.14307398016366,219.14692295574295A233,233,0,0,0,-41.033548877458365,229.35833943094644Z"></path><path fill="#8cc63f" d="M-119.74122383198697,327.2831943672299A348.5,348.5,0,0,1,-173.74529732334076,302.10068132664634L-115.99517666546384,202.07453820397023A233,233,0,0,0,-80.23781474302345,218.74846990382414Z"></path><path fill="#8cc63f" d="M-174.75421586779214,301.51818193341694A348.5,348.5,0,0,1,-223.56494863774736,267.34053890235464L-149.32282460417545,178.86222086352012A233,233,0,0,0,-117.0040952099151,201.49203881074092Z"></path><path fill="#8cc63f" d="M-224.45738948435448,266.59169211711907A348.5,348.5,0,0,1,-266.5916921171186,224.457389484355L-178.11337407828432,150.21526545078282A233,233,0,0,0,-150.2152654507825,178.11337407828464Z"></path><path fill="#8cc63f" d="M-267.3405389023542,223.5649486377479A348.5,348.5,0,0,1,-301.5181819334166,174.7542158677927L-201.49203881074067,117.00409520991552A233,233,0,0,0,-178.86222086351984,149.32282460417582Z"></path><path fill="#29abe2" d="M-302.10068132664617,173.7452973233411A348.5,348.5,0,0,1,-327.2831943672298,119.74122383198733L-218.74846990382403,80.23781474302368A233,233,0,0,0,-202.07453820397012,115.99517666546406Z"></path><path fill="#29abe2" d="M-327.68164741914865,118.64648306912746A348.5,348.5,0,0,1,-343.1038725534819,61.08995530203014L-229.3583394309464,41.033548877458614A233,233,0,0,0,-219.14692295574287,79.14307398016392Z"></path><path fill="#29abe2" d="M-343.30617246973463,59.94265546487571A348.5,348.5,0,0,1,-348.4995131911333,0.5824993932297466L-232.99927187537924,0.5824993932295793A233,233,0,0,0,-229.5606393471991,39.88624904030428Z"></path><path fill="#29abe2" d="M-348.4995131911333,-0.5824993932290423A348.5,348.5,0,0,1,-343.30617246973475,-59.94265546487502L-229.5606393471992,-39.88624904030382A233,233,0,0,0,-232.99927187537924,-0.5824993932291084Z"></path><path fill="#29abe2" d="M-343.103872553482,-61.089955302029445A348.5,348.5,0,0,1,-327.68164741914893,-118.64648306912679L-219.14692295574304,-79.14307398016346A233,233,0,0,0,-229.35833943094647,-41.033548877458145Z"></path><path fill="#29abe2" d="M-327.28319436723,-119.74122383198664A348.5,348.5,0,0,1,-302.1006813266465,-173.74529732334048L-202.07453820397035,-115.99517666546365A233,233,0,0,0,-218.7484699038242,-80.23781474302324Z"></path><path fill="#ae5dab" d="M-301.51818193341694,-174.7542158677921A348.5,348.5,0,0,1,-267.34053890235464,-223.56494863774736L-178.86222086352015,-149.32282460417545A233,233,0,0,0,-201.49203881074092,-117.0040952099151Z"></path><path fill="#ae5dab" d="M-266.59169211711907,-224.45738948435445A348.5,348.5,0,0,1,-224.4573894843549,-266.5916921171187L-150.2152654507829,-178.11337407828427A233,233,0,0,0,-178.11337407828464,-150.21526545078248Z"></path><path fill="#ae5dab" d="M-223.56494863774802,-267.34053890235407A348.5,348.5,0,0,1,-174.7542158677926,-301.51818193341666L-117.00409520991562,-201.49203881074064A233,233,0,0,0,-149.32282460417574,-178.8622208635199Z"></path><path fill="#ae5dab" d="M-173.7452973233415,-302.1006813266459A348.5,348.5,0,0,1,-119.74122383198748,-327.2831943672297L-80.23781474302397,-218.74846990382395A233,233,0,0,0,-115.99517666546417,-202.07453820397006Z"></path><path fill="#ae5dab" d="M-118.64648306912791,-327.6816474191485A348.5,348.5,0,0,1,-61.08995530203032,-343.1038725534819L-41.03354887745893,-229.35833943094633A233,233,0,0,0,-79.14307398016402,-219.14692295574284Z"></path><path fill="#ae5dab" d="M-59.942655464876196,-343.3061724697346A348.5,348.5,0,0,1,-0.5824993932299228,-348.4995131911333L-0.5824993932299041,-232.99927187537924A233,233,0,0,0,-39.8862490403044,-229.5606393471991Z"></path><path fill="#ff4040" d="M0.5824993932294137,-464.99963515518687A465,465,0,0,1,80.17268934190851,-458.0363958068025L60.11630388441251,-344.2909815944603A349.5,349.5,0,0,0,0.5824993932293688,-349.4995145840075Z"></path><path fill="#ff4040" d="M81.31998917906292,-457.83409589054975A465,465,0,0,1,158.4918714807308,-437.15595234942816L118.98850368884405,-328.62134134880824A349.5,349.5,0,0,0,61.26360372156685,-344.08868167820754Z"></path><path fill="#ff4040" d="M159.58661224359065,-436.7574992975093A465,465,0,0,1,231.99535830536772,-402.9927464915021L174.2452980197781,-302.9667079366951A349.5,349.5,0,0,0,120.08324445170383,-328.22288829688944Z"></path><path fill="#ff4040" d="M233.00427684981904,-402.41024709827263A465,465,0,0,1,298.44978356321195,-356.5848099556008L224.20773714275646,-268.10658441247693A349.5,349.5,0,0,0,175.25421656422935,-302.3842085434658Z"></path><path fill="#ff4040" d="M299.342224409819,-355.83596317036535A465,465,0,0,1,355.83596317036535,-299.342224409819L267.3577376272415,-225.1001779893635A349.5,349.5,0,0,0,225.10017798936352,-267.3577376272414Z"></path><path fill="#ff4040" d="M356.5848099556008,-298.4497835632119A465,465,0,0,1,402.41024709827263,-233.0042768498191L302.3842085434658,-175.25421656422944A349.5,349.5,0,0,0,268.10658441247693,-224.20773714275646Z"></path><path fill="#fbb03b" d="M402.992746491502,-231.99535830536783A465,465,0,0,1,436.7574992975093,-159.5866122435906L328.22288829688944,-120.08324445170379A349.5,349.5,0,0,0,302.96670793669506,-174.24529801977815Z"></path><path fill="#fbb03b" d="M437.15595234942816,-158.4918714807308A465,465,0,0,1,457.83409589054975,-81.31998917906287L344.08868167820754,-61.26360372156684A349.5,349.5,0,0,0,328.62134134880824,-118.98850368884403Z"></path><path fill="#fbb03b" d="M458.0363958068025,-80.17268934190851A465,465,0,0,1,464.99963515518687,-0.5824993932293563L349.4995145840075,-0.5824993932293562A349.5,349.5,0,0,0,344.2909815944603,-60.11630388441248Z"></path><path fill="#fbb03b" d="M464.99963515518687,0.5824993932293563A465,465,0,0,1,458.0363958068025,80.17268934190851L344.2909815944603,60.11630388441248A349.5,349.5,0,0,0,349.4995145840075,0.5824993932293562Z"></path><path fill="#fbb03b" d="M457.83409589054975,81.31998917906287A465,465,0,0,1,437.15595234942816,158.4918714807308L328.62134134880824,118.98850368884403A349.5,349.5,0,0,0,344.08868167820754,61.26360372156684Z"></path><path fill="#fbb03b" d="M436.7574992975093,159.5866122435906A465,465,0,0,1,402.99274649150203,231.99535830536772L302.9667079366951,174.24529801977806A349.5,349.5,0,0,0,328.22288829688944,120.08324445170379Z"></path><path fill="#fcee21" d="M402.4102470982727,233.00427684981898A465,465,0,0,1,356.5848099556008,298.44978356321195L268.10658441247693,224.2077371427565A349.5,349.5,0,0,0,302.3842085434658,175.25421656422935Z"></path><path fill="#fcee21" d="M355.83596317036535,299.342224409819A465,465,0,0,1,299.342224409819,355.8359631703653L225.10017798936352,267.35773762724136A349.5,349.5,0,0,0,267.3577376272414,225.10017798936352Z"></path><path fill="#fcee21" d="M298.44978356321195,356.58480995560075A465,465,0,0,1,233.00427684981923,402.4102470982726L175.2542165642295,302.38420854346566A349.5,349.5,0,0,0,224.2077371427565,268.10658441247693Z"></path><path fill="#fcee21" d="M231.99535830536792,402.9927464915019A465,465,0,0,1,159.58661224359085,436.75749929750924L120.08324445170396,328.2228882968893A349.5,349.5,0,0,0,174.24529801977823,302.96670793669506Z"></path><path fill="#fcee21" d="M158.491871480731,437.15595234942805A465,465,0,0,1,81.31998917906323,457.8340958905497L61.26360372156707,344.0886816782075A349.5,349.5,0,0,0,118.98850368884419,328.6213413488082Z"></path><path fill="#fcee21" d="M80.17268934190882,458.03639580680243A465,465,0,0,1,0.5824993932298267,464.99963515518687L0.5824993932296793,349.4995145840075A349.5,349.5,0,0,0,60.116303884412744,344.2909815944602Z"></path><path fill="#8cc63f" d="M-0.5824993932293567,464.99963515518687A465,465,0,0,1,-80.17268934190835,458.0363958068025L-60.116303884412396,344.2909815944603A349.5,349.5,0,0,0,-0.5824993932293261,349.4995145840075Z"></path><path fill="#8cc63f" d="M-81.31998917906276,457.8340958905498A465,465,0,0,1,-158.49187148073054,437.1559523494283L-118.98850368884385,328.6213413488083A349.5,349.5,0,0,0,-61.26360372156673,344.08868167820754Z"></path><path fill="#8cc63f" d="M-159.5866122435904,436.75749929750936A465,465,0,0,1,-231.9953583053675,402.9927464915022L-174.24529801977786,302.96670793669523A349.5,349.5,0,0,0,-120.08324445170364,328.2228882968895Z"></path><path fill="#8cc63f" d="M-233.00427684981884,402.4102470982728A465,465,0,0,1,-298.4497835632116,356.58480995560114L-224.2077371427562,268.10658441247716A349.5,349.5,0,0,0,-175.25421656422927,302.38420854346583Z"></path><path fill="#8cc63f" d="M-299.34222440981864,355.8359631703655A465,465,0,0,1,-355.83596317036495,299.3422244098194L-267.35773762724114,225.10017798936383A349.5,349.5,0,0,0,-225.10017798936335,267.3577376272416Z"></path><path fill="#8cc63f" d="M-356.5848099556005,298.4497835632123A465,465,0,0,1,-402.41024709827235,233.0042768498196L-302.3842085434655,175.25421656422986A349.5,349.5,0,0,0,-268.10658441247676,224.20773714275668Z"></path><path fill="#29abe2" d="M-402.9927464915019,231.99535830536792A465,465,0,0,1,-436.75749929750924,159.58661224359088L-328.2228882968893,120.08324445170406A349.5,349.5,0,0,0,-302.96670793669506,174.24529801977818Z"></path><path fill="#29abe2" d="M-437.15595234942805,158.49187148073102A465,465,0,0,1,-457.8340958905497,81.31998917906326L-344.0886816782074,61.26360372156717A349.5,349.5,0,0,0,-328.62134134880824,118.98850368884415Z"></path><path fill="#29abe2" d="M-458.03639580680243,80.17268934190885A465,465,0,0,1,-464.99963515518687,0.5824993932298551L-349.4995145840075,0.5824993932297783A349.5,349.5,0,0,0,-344.2909815944602,60.11630388441269Z"></path><path fill="#29abe2" d="M-464.99963515518687,-0.5824993932289152A465,465,0,0,1,-458.0363958068026,-80.17268934190791L-344.29098159446033,-60.116303884411984A349.5,349.5,0,0,0,-349.4995145840075,-0.5824993932290718Z"></path><path fill="#29abe2" d="M-457.8340958905498,-81.31998917906233A465,465,0,0,1,-437.1559523494284,-158.4918714807301L-328.62134134880847,-118.98850368884347A349.5,349.5,0,0,0,-344.0886816782076,-61.26360372156648Z"></path><path fill="#29abe2" d="M-436.7574992975095,-159.58661224358997A465,465,0,0,1,-402.9927464915024,-231.99535830536712L-302.9667079366954,-174.24529801977758A349.5,349.5,0,0,0,-328.22288829688955,-120.08324445170341Z"></path><path fill="#ae5dab" d="M-402.4102470982728,-233.00427684981878A465,465,0,0,1,-356.58480995560114,-298.44978356321155L-268.1065844124772,-224.20773714275614A349.5,349.5,0,0,0,-302.38420854346583,-175.25421656422924Z"></path><path fill="#ae5dab" d="M-355.8359631703656,-299.34222440981864A465,465,0,0,1,-299.3422244098194,-355.83596317036495L-225.10017798936377,-267.35773762724125A349.5,349.5,0,0,0,-267.3577376272416,-225.1001779893633Z"></path><path fill="#ae5dab" d="M-298.4497835632123,-356.5848099556005A465,465,0,0,1,-233.00427684981966,-402.41024709827235L-175.25421656422975,-302.38420854346555A349.5,349.5,0,0,0,-224.20773714275686,-268.1065844124766Z"></path><path fill="#ae5dab" d="M-231.99535830536828,-402.99274649150175A465,465,0,0,1,-159.58661224359128,-436.75749929750907L-120.08324445170422,-328.22288829688927A349.5,349.5,0,0,0,-174.2452980197786,-302.9667079366948Z"></path><path fill="#ae5dab" d="M-158.49187148073145,-437.15595234942793A465,465,0,0,1,-81.3199891790637,-457.83409589054963L-61.26360372156734,-344.0886816782074A349.5,349.5,0,0,0,-118.98850368884459,-328.621341348808Z"></path><path fill="#ae5dab" d="M-80.17268934190928,-458.0363958068023A465,465,0,0,1,-0.5824993932302965,-464.99963515518687L-0.5824993932299549,-349.4995145840075A349.5,349.5,0,0,0,-60.11630388441317,-344.29098159446016Z"></path></g><g pointer-events="none" text-anchor="middle"><text transform="rotate(-60) translate(174.75,0) rotate(0)" dy="0.35em">Mad</text><text transform="rotate(0) translate(174.75,0) rotate(0)" dy="0.35em">Scared</text><text transform="rotate(59.99999999999997) translate(174.75,0) rotate(0)" dy="0.35em">Joyful</text><text transform="rotate(119.99999999999997) translate(174.75,0) rotate(180)" dy="0.35em">Powerful</text><text transform="rotate(180) translate(174.75,0) rotate(180)" dy="0.35em">Peaceful</text><text transform="rotate(239.99999999999994) translate(174.75,0) rotate(180)" dy="0.35em">Sad</text><text transform="rotate(-85) translate(291.25,0) rotate(0)" dy="0.35em">Hurt</text><text transform="rotate(-75) translate(291.25,0) rotate(0)" dy="0.35em">Hostile</text><text transform="rotate(-65) translate(291.25,0) rotate(0)" dy="0.35em">Angry</text><text transform="rotate(-55) translate(291.25,0) rotate(0)" dy="0.35em">Rage</text><text transform="rotate(-45) translate(291.25,0) rotate(0)" dy="0.35em">Hateful</text><text transform="rotate(-35) translate(291.25,0) rotate(0)" dy="0.35em">Critical</text><text transform="rotate(-25) translate(291.25,0) rotate(0)" dy="0.35em">Rejected</text><text transform="rotate(-15.000000000000014) translate(291.25,0) rotate(0)" dy="0.35em">Confused</text><text transform="rotate(-5) translate(291.25,0) rotate(0)" dy="0.35em">Helpless</text><text transform="rotate(5) translate(291.25,0) rotate(0)" dy="0.35em">Submissive</text><text transform="rotate(15) translate(291.25,0) rotate(0)" dy="0.35em">Insecure</text><text transform="rotate(24.999999999999986) translate(291.25,0) rotate(0)" dy="0.35em">Anxious</text><text transform="rotate(35.000000000000014) translate(291.25,0) rotate(0)" dy="0.35em">Excited</text><text transform="rotate(45) translate(291.25,0) rotate(0)" dy="0.35em">Sexy</text><text transform="rotate(55) translate(291.25,0) rotate(0)" dy="0.35em">Energetic</text><text transform="rotate(64.99999999999997) translate(291.25,0) rotate(0)" dy="0.35em">Playful</text><text transform="rotate(74.99999999999997) translate(291.25,0) rotate(0)" dy="0.35em">Creative</text><text transform="rotate(84.99999999999994) translate(291.25,0) rotate(0)" dy="0.35em">Aware</text><text transform="rotate(95) translate(291.25,0) rotate(180)" dy="0.35em">Proud</text><text transform="rotate(105) translate(291.25,0) rotate(180)" dy="0.35em">Respected</text><text transform="rotate(114.99999999999994) translate(291.25,0) rotate(180)" dy="0.35em">Appreciated</text><text transform="rotate(124.99999999999997) translate(291.25,0) rotate(180)" dy="0.35em">Hopeful</text><text transform="rotate(134.99999999999997) translate(291.25,0) rotate(180)" dy="0.35em">Important</text><text transform="rotate(144.99999999999991) translate(291.25,0) rotate(180)" dy="0.35em">Faithful</text><text transform="rotate(154.99999999999997) translate(291.25,0) rotate(180)" dy="0.35em">Nuturing</text><text transform="rotate(164.99999999999997) translate(291.25,0) rotate(180)" dy="0.35em">Trusting</text><text transform="rotate(174.99999999999994) translate(291.25,0) rotate(180)" dy="0.35em">Loving</text><text transform="rotate(184.99999999999994) translate(291.25,0) rotate(180)" dy="0.35em">Intimate</text><text transform="rotate(194.99999999999994) translate(291.25,0) rotate(180)" dy="0.35em">Thoughtful</text><text transform="rotate(204.9999999999999) translate(291.25,0) rotate(180)" dy="0.35em">Content</text><text transform="rotate(214.99999999999994) translate(291.25,0) rotate(180)" dy="0.35em">Sleepy</text><text transform="rotate(224.99999999999994) translate(291.25,0) rotate(180)" dy="0.35em">Bored</text><text transform="rotate(234.99999999999994) translate(291.25,0) rotate(180)" dy="0.35em">Lonely</text><text transform="rotate(244.9999999999999) translate(291.25,0) rotate(180)" dy="0.35em">Depressed</text><text transform="rotate(254.99999999999994) translate(291.25,0) rotate(180)" dy="0.35em">Ashamed</text><text transform="rotate(264.99999999999994) translate(291.25,0) rotate(180)" dy="0.35em">Guilty</text><text transform="rotate(-85) translate(407.75,0) rotate(0)" dy="0.35em">Jealous</text><text transform="rotate(-75) translate(407.75,0) rotate(0)" dy="0.35em">Selfish</text><text transform="rotate(-65) translate(407.75,0) rotate(0)" dy="0.35em">Frustrated</text><text transform="rotate(-55) translate(407.75,0) rotate(0)" dy="0.35em">Furious</text><text transform="rotate(-45) translate(407.75,0) rotate(0)" dy="0.35em">Irritated</text><text transform="rotate(-35) translate(407.75,0) rotate(0)" dy="0.35em">Skeptical</text><text transform="rotate(-25) translate(407.75,0) rotate(0)" dy="0.35em">Bewildered</text><text transform="rotate(-15.000000000000014) translate(407.75,0) rotate(0)" dy="0.35em">Discouraged</text><text transform="rotate(-5) translate(407.75,0) rotate(0)" dy="0.35em">Insignificant</text><text transform="rotate(5) translate(407.75,0) rotate(0)" dy="0.35em">Weak</text><text transform="rotate(15) translate(407.75,0) rotate(0)" dy="0.35em">Foolish</text><text transform="rotate(24.999999999999986) translate(407.75,0) rotate(0)" dy="0.35em">Embarassed</text><text transform="rotate(35.000000000000014) translate(407.75,0) rotate(0)" dy="0.35em">Daring</text><text transform="rotate(45) translate(407.75,0) rotate(0)" dy="0.35em">Facinating</text><text transform="rotate(55) translate(407.75,0) rotate(0)" dy="0.35em">Stimulating</text><text transform="rotate(64.99999999999997) translate(407.75,0) rotate(0)" dy="0.35em">Amused</text><text transform="rotate(74.99999999999997) translate(407.75,0) rotate(0)" dy="0.35em">Extravagant</text><text transform="rotate(84.99999999999994) translate(407.75,0) rotate(0)" dy="0.35em">Delightful</text><text transform="rotate(95) translate(407.75,0) rotate(180)" dy="0.35em">Cheerful</text><text transform="rotate(105) translate(407.75,0) rotate(180)" dy="0.35em">Satisfied</text><text transform="rotate(114.99999999999994) translate(407.75,0) rotate(180)" dy="0.35em">Valuable</text><text transform="rotate(124.99999999999997) translate(407.75,0) rotate(180)" dy="0.35em">Worthwhile</text><text transform="rotate(134.99999999999997) translate(407.75,0) rotate(180)" dy="0.35em">Intelligent</text><text transform="rotate(144.99999999999991) translate(407.75,0) rotate(180)" dy="0.35em">Confident</text><text transform="rotate(154.99999999999997) translate(407.75,0) rotate(180)" dy="0.35em">Thankful</text><text transform="rotate(164.99999999999997) translate(407.75,0) rotate(180)" dy="0.35em">Sentimental</text><text transform="rotate(174.99999999999994) translate(407.75,0) rotate(180)" dy="0.35em">Serene</text><text transform="rotate(184.99999999999994) translate(407.75,0) rotate(180)" dy="0.35em">Responsive</text><text transform="rotate(194.99999999999994) translate(407.75,0) rotate(180)" dy="0.35em">Relaxed</text><text transform="rotate(204.9999999999999) translate(407.75,0) rotate(180)" dy="0.35em">Pensive</text><text transform="rotate(214.99999999999994) translate(407.75,0) rotate(180)" dy="0.35em">Apathetic</text><text transform="rotate(224.99999999999994) translate(407.75,0) rotate(180)" dy="0.35em">Inferior</text><text transform="rotate(234.99999999999994) translate(407.75,0) rotate(180)" dy="0.35em">Inadequate</text><text transform="rotate(244.9999999999999) translate(407.75,0) rotate(180)" dy="0.35em">Miserable</text><text transform="rotate(254.99999999999994) translate(407.75,0) rotate(180)" dy="0.35em">Stupid</text><text transform="rotate(264.99999999999994) translate(407.75,0) rotate(180)" dy="0.35em">Bashful</text></g></g></svg>